<svg xmlns="http://www.w3.org/2000/svg" viewBox="0 0 1008 881" role="img" aria-label="FemmForce">
  <title>FemmForce</title>
  <polygon fill="#EC4008" points="185.6,213.2 130.5,184.1 58.6,54 73.9,83.1 144.3,86.2 225.4,155 216.2,178 266.7,184.1 321.8,237.7 309.6,269.8 355.5,305 344.8,312.7"/>
  <polygon fill="#F0731A" points="346.3,227 246.8,144.3 262.1,136.7 291.2,179.5 389.2,231.6 393.8,260.6 451.9,279 497.9,343.3"/>
  <polygon fill="#DBA22E" points="683.1,341.8 727.5,328 750.4,344.8 692.3,403 658.6,406.1 640.2,474.9 658.6,416.8 637.2,338.7"/>
  <polygon fill="#F0731A" points="603.5,618.8 539.2,672.4 523.9,646.4 482.6,675.5 553,615.8 598.9,522.4 637.2,497.9 658.6,556.1"/>
  <polygon fill="#EC4008" points="297.4,361.7 231.5,335.7 168.8,242.3 321.8,323.4 320.3,358.6 387.7,392.3 332.6,387.7"/>
  <polygon fill="#F0731A" points="386.1,306.6 444.3,369.3 430.5,380 257.6,260.6 352.5,312.7 309.6,269.8 337.2,253"/>
  <polygon fill="#C81E14" points="153.5,692.3 248.4,672.4 251.4,696.9 222.4,713.7 243.8,716.8 158.1,796.4 54,827"/>
  <polygon fill="#DBA22E" points="761.1,418.3 725.9,496.4 712.2,476.5 701.4,505.6 706,407.6 799.4,357.1"/>
  <polygon fill="#EC4008" points="389.2,597.4 474.9,571.4 474.9,621.9 419.8,649.4 338.7,634.1 340.2,615.8"/>
  <polygon fill="#DBA22E" points="643.3,260.6 687.7,260.6 742.8,294.3 626.4,302 611.1,269.8"/>
  <polygon fill="#DBA22E" points="857.6,317.3 788.7,335.7 770.3,320.3 781,302 954,271.4"/>
  <polygon fill="#F0731A" points="481,392.3 458.1,357.1 537.7,410.7 615.7,354 556,504"/>
  <polygon fill="#F0731A" points="621.9,395.3 638.7,358.6 658.6,426 640.2,474.9 583.6,507.1"/>
  <polygon fill="#EC4008" points="260.6,563.7 301.9,520.9 439.7,548.4 343.3,602 277.5,602"/>
  <polygon fill="#C81E14" points="326.4,603.5 181,640.2 254.5,569.8 271.3,568.3 277.5,602"/>
  <polygon fill="#C81E14" points="132,628 99.9,628 129,586.7 204,569.8 164.2,623.4"/>
  <polygon fill="#EC4008" points="260.6,378.5 427.5,448.9 433.6,467.3 305,455"/>
</svg>
